<svg xmlns="http://www.w3.org/2000/svg" width="140.619" height="77.277" viewBox="0 0 140.619 77.277">
  <g id="Grupo_431" data-name="Grupo 431" transform="translate(0 0)">
    <path id="Trazado_1654" data-name="Trazado 1654" d="M613.462-66.8c0-9.609-.064-19.219.022-28.828.067-7.582,7.79-12.052,14.13-8.256a9.191,9.191,0,0,1,4.588,8.352c.04,19.283.073,38.565-.014,57.848-.026,5.729-4.205,9.787-9.506,9.677-5.377-.111-9.2-4.2-9.213-9.965C613.441-47.585,613.461-57.194,613.462-66.8Z" transform="translate(-593.507 105.265)" fill="#f28f00"/>
    <path id="Trazado_1655" data-name="Trazado 1655" d="M726.984-66.494c0,9.609.048,19.219-.017,28.828-.047,6.861-6.235,11.311-12.517,9.116-3.954-1.382-6.218-4.906-6.224-9.825q-.025-20.468-.005-40.936c0-5.317-.064-10.636.017-15.951.108-7.091,6.124-11.6,12.46-9.426,3.916,1.342,6.268,4.793,6.279,9.365C727-85.712,726.984-76.1,726.984-66.494Z" transform="translate(-606.321 105.261)" fill="#f28f00"/>
    <path id="Trazado_1656" data-name="Trazado 1656" d="M640.57-52.812c0-5.91,0-11.664,0-17.418,0-.306.056-.612.1-1.014h53.58v18.433Z" transform="translate(-597.176 100.665)" fill="#f28f00"/>
    <path id="Trazado_1657" data-name="Trazado 1657" d="M597.216-77.335c1.177-7.262,3.452-10.165,8.361-10.653v47.375c-4.56-.149-6.751-2.9-8.394-10.522-4.695.768-6.779-1.034-6.784-5.88-.005-5-.021-9.992.005-14.987C590.427-76.371,592.87-78.306,597.216-77.335Z" transform="translate(-590.39 102.929)" fill="#f28f00"/>
    <path id="Trazado_1658" data-name="Trazado 1658" d="M735.458-88.009c4.951.617,6.977,3.217,8.345,10.561,4.876-.639,6.81,1.079,6.813,6.062s.029,9.992-.009,14.987c-.033,4.215-2.558,6.164-6.925,5.145-.043,5.556-2.244,9.563-8.224,10.865Z" transform="translate(-610.008 102.932)" fill="#f28f00"/>
  </g>
</svg>
